<svg width="267" height="38" viewBox="0 0 267 38" fill="none" xmlns="http://www.w3.org/2000/svg">
<path d="M71.27 29V13.49H65.12V8H84.5V13.49H78.35V29H71.27ZM85.8359 29V12.59H92.2859V17.54L91.2359 16.13C91.7359 14.85 92.5359 13.89 93.6359 13.25C94.7359 12.61 96.0559 12.29 97.5959 12.29V18.29C97.2959 18.25 97.0259 18.22 96.7859 18.2C96.5659 18.18 96.3359 18.17 96.0959 18.17C95.0759 18.17 94.2359 18.44 93.5759 18.98C92.9359 19.5 92.6159 20.41 92.6159 21.71V29H85.8359ZM108.539 29V26.09L108.059 25.31V19.79C108.059 18.99 107.809 18.38 107.309 17.96C106.829 17.54 106.039 17.33 104.939 17.33C104.199 17.33 103.449 17.45 102.689 17.69C101.929 17.91 101.279 18.22 100.739 18.62L98.5794 14.15C99.5394 13.55 100.689 13.09 102.029 12.77C103.369 12.45 104.679 12.29 105.959 12.29C108.779 12.29 110.959 12.92 112.499 14.18C114.059 15.44 114.839 17.44 114.839 20.18V29H108.539ZM103.889 29.3C102.549 29.3 101.429 29.07 100.529 28.61C99.6294 28.15 98.9494 27.54 98.4894 26.78C98.0294 26 97.7994 25.14 97.7994 24.2C97.7994 23.14 98.0694 22.24 98.6094 21.5C99.1494 20.76 99.9694 20.2 101.069 19.82C102.189 19.44 103.599 19.25 105.299 19.25H108.719V22.52H106.379C105.659 22.52 105.129 22.64 104.789 22.88C104.469 23.1 104.309 23.44 104.309 23.9C104.309 24.28 104.449 24.6 104.729 24.86C105.029 25.1 105.429 25.22 105.929 25.22C106.389 25.22 106.809 25.1 107.189 24.86C107.589 24.6 107.879 24.2 108.059 23.66L108.929 25.67C108.669 26.89 108.119 27.8 107.279 28.4C106.439 29 105.309 29.3 103.889 29.3ZM122.127 29L115.527 12.59H122.487L127.497 25.91H123.987L129.327 12.59H135.747L129.147 29H122.127ZM145.404 29.3C143.404 29.3 141.654 28.93 140.154 28.19C138.674 27.45 137.524 26.44 136.704 25.16C135.884 23.86 135.474 22.4 135.474 20.78C135.474 19.12 135.874 17.65 136.674 16.37C137.494 15.09 138.604 14.09 140.004 13.37C141.424 12.65 143.014 12.29 144.774 12.29C146.394 12.29 147.884 12.61 149.244 13.25C150.624 13.89 151.724 14.84 152.544 16.1C153.384 17.36 153.804 18.92 153.804 20.78C153.804 21.02 153.794 21.29 153.774 21.59C153.754 21.87 153.734 22.13 153.714 22.37H141.084V19.1H150.114L147.564 19.97C147.564 19.33 147.444 18.79 147.204 18.35C146.984 17.89 146.674 17.54 146.274 17.3C145.874 17.04 145.394 16.91 144.834 16.91C144.274 16.91 143.784 17.04 143.364 17.3C142.964 17.54 142.654 17.89 142.434 18.35C142.214 18.79 142.104 19.33 142.104 19.97V20.99C142.104 21.69 142.244 22.29 142.524 22.79C142.804 23.29 143.204 23.67 143.724 23.93C144.244 24.17 144.874 24.29 145.614 24.29C146.374 24.29 146.994 24.19 147.474 23.99C147.974 23.79 148.494 23.49 149.034 23.09L152.574 26.66C151.774 27.52 150.784 28.18 149.604 28.64C148.444 29.08 147.044 29.3 145.404 29.3ZM155.943 29V6.74H162.723V29H155.943ZM170.499 29V13.49H164.349V8H183.729V13.49H177.579V29H170.499ZM185.357 29V12.59H192.137V29H185.357ZM188.747 11.27C187.507 11.27 186.517 10.94 185.777 10.28C185.037 9.62 184.667 8.8 184.667 7.82C184.667 6.84 185.037 6.02 185.777 5.36C186.517 4.7 187.507 4.37 188.747 4.37C189.987 4.37 190.977 4.68 191.717 5.3C192.457 5.92 192.827 6.72 192.827 7.7C192.827 8.74 192.457 9.6 191.717 10.28C190.977 10.94 189.987 11.27 188.747 11.27ZM203.963 29.3C202.083 29.3 200.413 28.94 198.953 28.22C197.493 27.5 196.343 26.5 195.503 25.22C194.683 23.92 194.273 22.44 194.273 20.78C194.273 19.12 194.683 17.65 195.503 16.37C196.343 15.09 197.493 14.09 198.953 13.37C200.413 12.65 202.083 12.29 203.963 12.29C205.963 12.29 207.673 12.72 209.093 13.58C210.513 14.44 211.493 15.63 212.033 17.15L206.783 19.73C206.443 18.97 206.023 18.42 205.523 18.08C205.043 17.74 204.513 17.57 203.933 17.57C203.433 17.57 202.963 17.69 202.523 17.93C202.103 18.17 201.763 18.53 201.503 19.01C201.263 19.47 201.143 20.06 201.143 20.78C201.143 21.5 201.263 22.1 201.503 22.58C201.763 23.06 202.103 23.42 202.523 23.66C202.963 23.9 203.433 24.02 203.933 24.02C204.513 24.02 205.043 23.85 205.523 23.51C206.023 23.17 206.443 22.62 206.783 21.86L212.033 24.44C211.493 25.96 210.513 27.15 209.093 28.01C207.673 28.87 205.963 29.3 203.963 29.3ZM219.27 26.3L219.42 18.32L225.09 12.59H233.1L225.6 20.45L222.21 23.18L219.27 26.3ZM213.6 29V6.74H220.38V29H213.6ZM225.45 29L220.95 23.3L225.12 18.17L233.64 29H225.45ZM243.314 29.3C241.314 29.3 239.564 28.93 238.064 28.19C236.584 27.45 235.434 26.44 234.614 25.16C233.794 23.86 233.384 22.4 233.384 20.78C233.384 19.12 233.784 17.65 234.584 16.37C235.404 15.09 236.514 14.09 237.914 13.37C239.334 12.65 240.924 12.29 242.684 12.29C244.304 12.29 245.794 12.61 247.154 13.25C248.534 13.89 249.634 14.84 250.454 16.1C251.294 17.36 251.714 18.92 251.714 20.78C251.714 21.02 251.704 21.29 251.684 21.59C251.664 21.87 251.644 22.13 251.624 22.37H238.994V19.1H248.024L245.474 19.97C245.474 19.33 245.354 18.79 245.114 18.35C244.894 17.89 244.584 17.54 244.184 17.3C243.784 17.04 243.304 16.91 242.744 16.91C242.184 16.91 241.694 17.04 241.274 17.3C240.874 17.54 240.564 17.89 240.344 18.35C240.124 18.79 240.014 19.33 240.014 19.97V20.99C240.014 21.69 240.154 22.29 240.434 22.79C240.714 23.29 241.114 23.67 241.634 23.93C242.154 24.17 242.784 24.29 243.524 24.29C244.284 24.29 244.904 24.19 245.384 23.99C245.884 23.79 246.404 23.49 246.944 23.09L250.484 26.66C249.684 27.52 248.694 28.18 247.514 28.64C246.354 29.08 244.954 29.3 243.314 29.3ZM261.774 29.3C259.514 29.3 257.754 28.76 256.494 27.68C255.234 26.58 254.604 24.9 254.604 22.64V8.9H261.384V22.58C261.384 23.08 261.514 23.47 261.774 23.75C262.054 24.03 262.394 24.17 262.794 24.17C263.374 24.17 263.884 24.02 264.324 23.72L265.944 28.43C265.424 28.73 264.794 28.95 264.054 29.09C263.334 29.23 262.574 29.3 261.774 29.3ZM252.354 18.44V13.49H264.744V18.44H252.354Z" fill="white"/>
<path d="M51.7395 12.6908C50.9399 6.34541 45.5852 1.42071 39.0342 1.42071C35.8978 1.42071 33.0668 2.58178 30.8381 4.43867C28.7382 1.75719 25.5104 0 21.8444 0C16.3693 0 11.8081 3.84256 10.6699 8.97289C4.717 9.39038 0 14.2985 0 20.3552C0 26.6798 5.13241 31.8143 11.4633 31.8143C12.8071 31.8143 14.0845 31.5422 15.283 31.1123C17.3704 33.9807 20.7249 35.8625 24.5384 35.8625C25.9404 35.8625 27.2676 35.5779 28.5076 35.1168C28.5076 34.2195 28.5076 28.3622 28.5076 22.4011L14.4418 28.7714V26.7567L18.0746 23.6805V20.7145H19.6594V22.3325L23.0284 19.4807V16.685H24.6131V18.1369L28.5097 14.8344C28.5097 12.0075 28.5097 9.80787 28.5097 9.08713C28.5097 6.69851 29.9865 4.4906 29.999 4.50514C30.0114 4.4906 31.4882 6.69851 31.4882 9.08713C31.4882 9.80787 31.4882 12.0054 31.4882 14.8344L35.3848 18.1369V16.685H36.9675V19.4807L40.3386 22.3325V20.7145H41.9213V23.6805L45.5561 26.7567V28.7714L31.4903 22.4011C31.4903 27.5397 31.4903 32.5932 31.4903 34.4729C33.4822 36.1595 36.0183 37.2147 38.8306 37.2147C43.4064 37.2147 47.3258 34.5083 49.164 30.6304C49.7248 30.7405 50.3043 30.8049 50.8962 30.8049C55.9227 30.8049 60 26.7317 60 21.7094C59.9896 16.9716 56.3548 13.1291 51.7395 12.6908Z" fill="#3C8EE8"/>
</svg>
