<svg width="32" height="32" viewBox="0 0 32 32" fill="none" xmlns="http://www.w3.org/2000/svg">
<path d="M24.0096 0C25.1055 0 26.1378 0.210275 27.1063 0.630824C28.0749 1.05137 28.9223 1.62485 29.6487 2.35125C30.3751 3.07766 30.9486 3.92513 31.3692 4.89367C31.7897 5.86221 32 6.89446 32 7.99044V23.9713C32 25.0673 31.7897 26.1059 31.3692 27.0872C30.9486 28.0685 30.3751 28.9223 29.6487 29.6487C28.9223 30.3751 28.0749 30.9486 27.1063 31.3692C26.1378 31.7897 25.1055 32 24.0096 32H7.99044C6.89446 32 5.86221 31.7897 4.89367 31.3692C3.92513 30.9486 3.07766 30.3751 2.35125 29.6487C1.62485 28.9223 1.05137 28.0685 0.630824 27.0872C0.210275 26.1059 0 25.0673 0 23.9713V7.99044C0 6.89446 0.210275 5.86221 0.630824 4.89367C1.05137 3.92513 1.62485 3.07766 2.35125 2.35125C3.07766 1.62485 3.92513 1.05137 4.89367 0.630824C5.86221 0.210275 6.89446 0 7.99044 0H24.0096ZM21.9833 6.99642H18.6189C17.9562 6.99642 17.3445 7.11111 16.7838 7.3405C16.223 7.56989 15.7387 7.86937 15.3309 8.23895C14.9231 8.60852 14.5982 9.03544 14.356 9.51971C14.1139 10.004 13.9928 10.4883 13.9928 10.9725V12.9988H11.0108V16.9749H13.9928V25.0036H18.0072V16.9749H20.9892V12.9988H18.0072V12.0048C18.0072 11.6734 18.1282 11.4186 18.3704 11.2401C18.6125 11.0617 18.8228 10.9725 19.0012 10.9725H21.9833V6.99642Z" fill="white" fill-opacity="0.5"/>
</svg>
