<svg width="32" height="26" viewBox="0 0 32 26" fill="none" xmlns="http://www.w3.org/2000/svg">
<path d="M32 3.09677C31.0538 4.47312 29.957 5.5914 28.7097 6.45161V7.35484C28.7097 9.50538 28.3011 11.6882 27.4839 13.9032C26.6667 16.1183 25.4731 18.1183 23.9032 19.9032C22.3333 21.6882 20.3871 23.1505 18.0645 24.2903C15.7419 25.4301 13.0753 26 10.0645 26C8.17204 26 6.3871 25.7419 4.70968 25.2258C3.03226 24.7097 1.46237 23.9785 0 23.0323C0.258065 23.0753 0.516129 23.1075 0.774194 23.129C1.03226 23.1505 1.29032 23.1613 1.54839 23.1613C3.09677 23.1613 4.56989 22.9032 5.96774 22.3871C7.36559 21.871 8.62366 21.1828 9.74193 20.3226C8.27957 20.2796 7 19.8387 5.90323 19C4.80645 18.1613 4.04301 17.0753 3.6129 15.7419C3.82796 15.828 4.03226 15.871 4.22581 15.871H4.83871C5.44086 15.871 6 15.8065 6.51613 15.6774C5.01075 15.3333 3.76344 14.5699 2.77419 13.3871C1.78495 12.2043 1.29032 10.8172 1.29032 9.22581V9.16129C1.76344 9.37634 2.23656 9.55914 2.70968 9.70968C3.1828 9.86022 3.69892 9.93548 4.25806 9.93548C3.39785 9.33333 2.69892 8.55914 2.16129 7.6129C1.62366 6.66667 1.35484 5.63441 1.35484 4.51613C1.35484 3.31183 1.65591 2.21505 2.25806 1.22581C3.89247 3.2043 5.87097 4.80645 8.19355 6.03226C10.5161 7.25806 13.0323 7.93548 15.7419 8.06452C15.6129 7.54839 15.5484 7.05376 15.5484 6.58065C15.5484 5.67742 15.7204 4.82796 16.0645 4.03226C16.4086 3.23656 16.8817 2.53763 17.4839 1.93548C18.086 1.33333 18.7849 0.860215 19.5806 0.516129C20.3763 0.172043 21.2258 0 22.129 0C23.0753 0 23.957 0.182796 24.7742 0.548387C25.5914 0.913978 26.3011 1.41935 26.9032 2.06452C27.6774 1.93548 28.4086 1.73118 29.0968 1.45161C29.7849 1.17204 30.4516 0.83871 31.0968 0.451613C30.5806 2.04301 29.6129 3.26882 28.1935 4.12903C29.5699 3.91398 30.8387 3.56989 32 3.09677Z" fill="white" fill-opacity="0.5"/>
</svg>
