<svg width="60" height="38" viewBox="0 0 60 38" fill="none" xmlns="http://www.w3.org/2000/svg">
<path d="M51.7395 12.6908C50.9399 6.34541 45.5852 1.42071 39.0342 1.42071C35.8978 1.42071 33.0668 2.58178 30.8381 4.43867C28.7382 1.75719 25.5104 0 21.8444 0C16.3693 0 11.8081 3.84256 10.6699 8.97289C4.717 9.39038 0 14.2985 0 20.3552C0 26.6798 5.13241 31.8143 11.4633 31.8143C12.8071 31.8143 14.0845 31.5422 15.283 31.1123C17.3704 33.9807 20.7249 35.8625 24.5384 35.8625C25.9404 35.8625 27.2676 35.5779 28.5076 35.1168C28.5076 34.2195 28.5076 28.3622 28.5076 22.4011L14.4418 28.7714V26.7567L18.0746 23.6805V20.7145H19.6594V22.3325L23.0284 19.4807V16.685H24.6131V18.1369L28.5097 14.8344C28.5097 12.0075 28.5097 9.80787 28.5097 9.08713C28.5097 6.69851 29.9865 4.4906 29.999 4.50514C30.0114 4.4906 31.4882 6.69851 31.4882 9.08713C31.4882 9.80787 31.4882 12.0054 31.4882 14.8344L35.3848 18.1369V16.685H36.9675V19.4807L40.3386 22.3325V20.7145H41.9213V23.6805L45.5561 26.7567V28.7714L31.4903 22.4011C31.4903 27.5397 31.4903 32.5932 31.4903 34.4729C33.4822 36.1595 36.0183 37.2147 38.8306 37.2147C43.4064 37.2147 47.3258 34.5083 49.164 30.6304C49.7248 30.7405 50.3043 30.8049 50.8962 30.8049C55.9227 30.8049 60 26.7317 60 21.7094C59.9896 16.9716 56.3548 13.1291 51.7395 12.6908Z" fill="#3C8EE8"/>
</svg>
